<?xml version="1.0"?>
<svg xmlns="http://www.w3.org/2000/svg" xmlns:xlink="http://www.w3.org/1999/xlink" xmlns:svgjs="http://svgjs.com/svgjs" version="1.1" width="512" height="512" x="0" y="0" viewBox="0 0 512 512" style="enable-background:new 0 0 512 512" xml:space="preserve" class=""><circle r="256" cx="256" cy="256" fill="#e1e1e1" shape="circle"/><g transform="matrix(0.7,0,0,0.7,76.80000000000001,76.8001533508301)">
<g xmlns="http://www.w3.org/2000/svg">
	<g>
		<path d="M428.907,301.724c-5.793-1.037-11.757-1.579-17.844-1.579s-12.051,0.542-17.845,1.579    c-47.175,8.45-83.092,49.788-83.092,99.357c0,55.656,45.28,100.937,100.937,100.937S512,456.737,512,401.081    C512,351.513,476.083,310.174,428.907,301.724z M412.707,441.206l-43.53-43.53l21.28-21.28l14.864,14.864l21.715-40.528    l26.527,14.213L412.707,441.206z" fill="#1e1772e0" data-original="#000000" style="" class=""/>
	</g>
</g>
<g xmlns="http://www.w3.org/2000/svg">
	<g>
		<path d="M397.656,270.73c-26.019-23.885-59.171-40.907-93.65-48.114c27.309-21.907,44.827-55.541,44.827-93.194    c0-65.859-53.58-119.439-119.439-119.439s-119.439,53.58-119.439,119.439c0,37.513,17.388,71.035,44.522,92.948    C66.546,239.641,0,317.289,0,410.207v15.048h209.96l-23.066-113.877l24.886-33.376l-18.319-34.668    c11.346,3.587,23.417,5.528,35.934,5.528c12.622,0,24.79-1.974,36.219-5.62l-18.285,35.186l24.568,32.949L248.83,425.255h33.445    c-1.468-7.838-2.244-15.916-2.244-24.174C280.03,333.356,331.679,277.466,397.656,270.73z" fill="#1e1772e0" data-original="#000000" style="" class=""/>
	</g>
</g>
<g xmlns="http://www.w3.org/2000/svg">
</g>
<g xmlns="http://www.w3.org/2000/svg">
</g>
<g xmlns="http://www.w3.org/2000/svg">
</g>
<g xmlns="http://www.w3.org/2000/svg">
</g>
<g xmlns="http://www.w3.org/2000/svg">
</g>
<g xmlns="http://www.w3.org/2000/svg">
</g>
<g xmlns="http://www.w3.org/2000/svg">
</g>
<g xmlns="http://www.w3.org/2000/svg">
</g>
<g xmlns="http://www.w3.org/2000/svg">
</g>
<g xmlns="http://www.w3.org/2000/svg">
</g>
<g xmlns="http://www.w3.org/2000/svg">
</g>
<g xmlns="http://www.w3.org/2000/svg">
</g>
<g xmlns="http://www.w3.org/2000/svg">
</g>
<g xmlns="http://www.w3.org/2000/svg">
</g>
<g xmlns="http://www.w3.org/2000/svg">
</g>
</g></svg>
