<?xml version="1.0"?>
<svg xmlns="http://www.w3.org/2000/svg" xmlns:xlink="http://www.w3.org/1999/xlink" xmlns:svgjs="http://svgjs.com/svgjs" version="1.1" width="512" height="512" x="0" y="0" viewBox="0 0 468.293 468.293" style="enable-background:new 0 0 512 512" xml:space="preserve" class=""><circle r="234.1465" cx="234.1465" cy="234.1465" fill="#e1e1e1" shape="circle"/><g transform="matrix(0.7,0,0,0.7,70.24379882812505,70.24379882812505)">
<path xmlns="http://www.w3.org/2000/svg" style="" d="M234.146,0C104.898,0,0,104.898,0,234.146s104.898,234.146,234.146,234.146  s234.146-104.898,234.146-234.146S363.395,0,234.146,0z M66.185,234.146c0-93.034,75.551-168.585,167.961-168.585  c34.966,0,68.059,10.615,94.907,29.346L95.532,329.054C76.8,302.205,66.185,269.112,66.185,234.146z M234.146,402.107  c-34.966,0-68.059-10.615-94.907-29.346l233.522-233.522c18.732,26.849,29.346,59.941,29.346,94.907  C402.107,327.18,327.18,402.107,234.146,402.107z" fill="#ec0b0bc7" data-original="#d15241" class=""/>
<g xmlns="http://www.w3.org/2000/svg">
</g>
<g xmlns="http://www.w3.org/2000/svg">
</g>
<g xmlns="http://www.w3.org/2000/svg">
</g>
<g xmlns="http://www.w3.org/2000/svg">
</g>
<g xmlns="http://www.w3.org/2000/svg">
</g>
<g xmlns="http://www.w3.org/2000/svg">
</g>
<g xmlns="http://www.w3.org/2000/svg">
</g>
<g xmlns="http://www.w3.org/2000/svg">
</g>
<g xmlns="http://www.w3.org/2000/svg">
</g>
<g xmlns="http://www.w3.org/2000/svg">
</g>
<g xmlns="http://www.w3.org/2000/svg">
</g>
<g xmlns="http://www.w3.org/2000/svg">
</g>
<g xmlns="http://www.w3.org/2000/svg">
</g>
<g xmlns="http://www.w3.org/2000/svg">
</g>
<g xmlns="http://www.w3.org/2000/svg">
</g>
</g></svg>
