<?xml version="1.0"?>
<svg xmlns="http://www.w3.org/2000/svg" xmlns:xlink="http://www.w3.org/1999/xlink" xmlns:svgjs="http://svgjs.com/svgjs" version="1.1" width="512" height="512" x="0" y="0" viewBox="0 0 682 682.66669" style="enable-background:new 0 0 512 512" xml:space="preserve" class=""><circle r="341" cx="341" cy="341.333345" fill="#e1e1e1" shape="circle"/><g transform="matrix(0.7,0,0,0.7,96.09967145025732,96)"><path xmlns="http://www.w3.org/2000/svg" d="m248.972656 425.109375c0 6.617187 3.277344 12.804687 8.761719 16.546875 6.644531 4.523438 12.269531 6.84375 14.421875 7.304688 9.707031 1.421874 120.9375 13.308593 193.875 21.015624l-5.253906 49.71875c-56.816406-6-189.796875-20.109374-197.5-21.527343-13.585938-2.5-26.945313-10.59375-33.699219-15.195313-6.433594-4.386718-11.976563-9.753906-16.527344-15.808594l-.230469.234376-119.980468-117.742188c-4.765625-4.679688-11.066406-7.210938-17.742188-7.15625-6.675781.0625-12.929687 2.71875-17.609375 7.484375-4.675781 4.773437-7.214843 11.070313-7.15625 17.75.0625 6.675781 2.722657 12.929687 7.488281 17.609375l185.546876 182.082031c14.824218 14.5625 34.441406 22.574219 55.214843 22.574219h341.75v50h-341.75c-33.957031 0-66.003906-13.101562-90.238281-36.882812l-185.542969-182.085938c-14.300781-14.035156-22.277343-32.792969-22.464843-52.828125-.191407-20.03125 7.4375-38.9375 21.464843-53.234375 14.035157-14.300781 32.792969-22.277344 52.828125-22.464844 20-.179687 38.933594 7.433594 53.238282 21.464844l79.464843 77.992188c6.4375-11.914063 16.21875-21.757813 28.082031-28.265626-48.628906-37.019531-80.082031-95.5-80.082031-161.195312 0-111.660156 90.839844-202.5 202.5-202.5 40.601563 0 78.441407 12.023438 110.171875 32.675781l-35.066406 37.144531c-22.179688-12.609374-47.816406-19.820312-75.105469-19.820312-84.085937 0-152.5 68.414062-152.5 152.5s68.414063 152.5 152.5 152.5c82.78125 0 150.371094-66.304688 152.449219-148.597656l45.222656-47.902344c3.152344 14.171875 4.828125 28.890625 4.828125 44 0 62.65625-28.609375 118.753906-73.449219 155.929688 45.875 6.964843 89.386719 24.597656 127.625 51.960937l25.824219 18.476563v61.484374l-54.921875-39.296874c-41.191406-29.476563-89.730468-45.382813-140.375-45.992188-1.03125-.015625-2.046875-.023438-3.097656-.019531l-172.953125.070312c-11.039063-.003906-20.011719 8.96875-20.011719 19.996094zm39.835938-275.855469-34.453125 36.234375 109.046875 103.667969 202.609375-214.625-36.359375-34.320312-168.164063 178.132812zm0 0" fill="#017e27" data-original="#000000" style="" class=""/></g></svg>
